<svg width="15" height="31" viewBox="0 0 15 31" fill="none" xmlns="http://www.w3.org/2000/svg">
<path d="M14.0323 10.7812L13.3583 13.348H0.976918L1.64169 10.7812H14.0323ZM7.59695 25L1.28161 17.4844L1.29084 15.1761H4.41158C5.10713 15.1761 5.6888 15.0469 6.15661 14.7884C6.62441 14.5298 6.97526 14.179 7.20916 13.7358C7.44306 13.2926 7.56309 12.7879 7.56925 12.2216C7.56309 11.3722 7.3138 10.6797 6.82138 10.1442C6.33511 9.60251 5.53184 9.33168 4.41158 9.33168H0.976918L1.73402 6.09091H4.41158C5.98118 6.09091 7.28918 6.32789 8.33558 6.80185C9.38814 7.26965 10.176 7.9375 10.6992 8.8054C11.2286 9.6733 11.4963 10.7074 11.5025 11.9077C11.4963 12.9725 11.3178 13.902 10.967 14.696C10.6223 15.4901 10.0775 16.1518 9.33274 16.6811C8.59411 17.2105 7.6308 17.6044 6.44283 17.8629L6.2951 17.9183L11.9457 24.8338V25H7.59695ZM14.0508 6.09091L13.3583 8.6946H3.16513L3.8576 6.09091H14.0508Z" fill="#F4F4F4"/>
</svg>
