<svg width="32" height="28" viewBox="0 0 32 28" fill="none" xmlns="http://www.w3.org/2000/svg">
<path d="M13 20.0033C13 20.7989 13.3161 21.562 13.8787 22.1246C14.4413 22.6872 15.2044 23.0033 16 23.0033C16.7957 23.0033 17.5587 22.6872 18.1214 22.1246C18.684 21.562 19 20.7989 19 20.0033C19 19.2076 18.684 18.4446 18.1214 17.882C17.5587 17.3194 16.7957 17.0033 16 17.0033C15.2044 17.0033 14.4413 17.3194 13.8787 17.882C13.3161 18.4446 13 19.2076 13 20.0033Z" fill="#FF4900"/>
<path d="M19.9996 12.1902V10.0035C19.9996 9.64988 19.8591 9.31074 19.6091 9.06069C19.3591 8.81064 19.0199 8.67017 18.6663 8.67017C18.3127 8.67017 17.9735 8.81064 17.7235 9.06069C17.4734 9.31074 17.333 9.64988 17.333 10.0035V12.0035H14.6663V10.0035C14.6663 9.64988 14.5258 9.31074 14.2758 9.06069C14.0257 8.81064 13.6866 8.67017 13.333 8.67017C12.9793 8.67017 12.6402 8.81064 12.3901 9.06069C12.1401 9.31074 11.9996 9.64988 11.9996 10.0035V12.1902C9.38508 12.6616 7.01884 14.0354 5.31327 16.0724C3.60771 18.1093 2.67096 20.6801 2.66629 23.3368V26.0035C2.66629 26.5339 2.877 27.0426 3.25208 27.4177C3.62715 27.7927 4.13586 28.0035 4.66629 28.0035H27.333C27.8634 28.0035 28.3721 27.7927 28.7472 27.4177C29.1222 27.0426 29.333 26.5339 29.333 26.0035V23.3368C29.3283 20.6801 28.3915 18.1093 26.686 16.0724C24.9804 14.0354 22.6142 12.6616 19.9996 12.1902ZM15.9996 15.0035C16.9885 15.0035 17.9552 15.2967 18.7775 15.8461C19.5997 16.3955 20.2406 17.1764 20.619 18.0901C20.9975 19.0037 21.0965 20.009 20.9036 20.9789C20.7106 21.9488 20.2344 22.8397 19.5352 23.539C18.8359 24.2383 17.945 24.7145 16.9751 24.9074C16.0052 25.1003 14.9998 25.0013 14.0862 24.6229C13.1726 24.2444 12.3917 23.6036 11.8423 22.7813C11.2929 21.9591 10.9996 20.9924 10.9996 20.0035C10.9996 18.6774 11.5264 17.4056 12.4641 16.4679C13.4018 15.5303 14.6735 15.0035 15.9996 15.0035Z" fill="#002D90"/>
<path d="M28.1333 1.23013C20.1276 -0.410043 11.8724 -0.410043 3.86667 1.23013C2.79592 1.46425 1.83401 2.04921 1.13353 2.8922C0.433047 3.73519 0.0341089 4.78794 0 5.88345L0 8.55011C0 8.98785 0.0862192 9.4213 0.253735 9.82572C0.421251 10.2301 0.666782 10.5976 0.976311 10.9071C1.60143 11.5322 2.44928 11.8834 3.33333 11.8834H7.33333C7.77107 11.8834 8.20453 11.7972 8.60894 11.6297C9.01336 11.4622 9.38083 11.2167 9.69036 10.9071C9.99988 10.5976 10.2454 10.2301 10.4129 9.82572C10.5804 9.4213 10.6667 8.98785 10.6667 8.55011V7.47011C10.6664 7.38614 10.6978 7.30516 10.7547 7.24336C10.8115 7.18156 10.8896 7.1435 10.9733 7.13678C14.3186 6.85679 17.6814 6.85679 21.0267 7.13678C21.1104 7.1435 21.1885 7.18156 21.2453 7.24336C21.3022 7.30516 21.3336 7.38614 21.3333 7.47011V8.55011C21.3333 8.98785 21.4196 9.4213 21.5871 9.82572C21.7546 10.2301 22.0001 10.5976 22.3096 10.9071C22.9348 11.5322 23.7826 11.8834 24.6667 11.8834H28.6667C29.1044 11.8834 29.5379 11.7972 29.9423 11.6297C30.3467 11.4622 30.7142 11.2167 31.0237 10.9071C31.3332 10.5976 31.5787 10.2301 31.7463 9.82572C31.9138 9.4213 32 8.98785 32 8.55011V5.88345C31.9659 4.78794 31.567 3.73519 30.8665 2.8922C30.166 2.04921 29.2041 1.46425 28.1333 1.23013Z" fill="#002D90"/>
</svg>
